<?xml version="1.0" encoding="UTF-8"?>
<svg id="Layer_2" data-name="Layer 2" xmlns="http://www.w3.org/2000/svg" viewBox="0 0 135 24">
  <defs>
    <style>
      .cls-1 {
        fill: #f1f5f9;
        stroke-width: 0px;
      }
    </style>
  </defs>
  <g id="Black">
    <g id="White">
      <circle class="cls-1" cx="1.9" cy="1.9" r="1.9"/>
      <circle class="cls-1" cx="6.56" cy="22.1" r="1.9"/>
      <path class="cls-1" d="M24,22.1c0,1.05-.85,1.9-1.9,1.9h-13.53c.47-.5.76-1.16.76-1.9s-.29-1.4-.76-1.9h13.53c1.05,0,1.9.85,1.9,1.9Z"/>
      <g>
        <polygon class="cls-1" points="12.14 10.77 12.78 12.3 11.47 12.3 12.13 10.77 12.14 10.77"/>
        <path class="cls-1" d="M7.67,10.76h-.62v2.48h.77c.5,0,.98-.31.98-1.18,0-.79-.28-1.3-1.14-1.3ZM7.67,10.76h-.62v2.48h.77c.5,0,.98-.31.98-1.18,0-.79-.28-1.3-1.14-1.3ZM17.44,0H3.9c.47.5.76,1.16.76,1.9v18.2c.5-.47,1.16-.76,1.9-.76h12.78V1.9c0-1.05-.85-1.9-1.9-1.9ZM7.88,13.97h-1.7v-3.94h1.7c1.02,0,1.79.65,1.79,1.95,0,1.14-.59,1.99-1.79,1.99ZM13.48,13.97l-.39-.87h-1.99l-.41.87h-.79l1.79-3.93h.87l1.76,3.93h-.84ZM16.5,12.56h-.91v1.41h-.87v-3.94h1.78c.99,0,1.36.62,1.36,1.26s-.38,1.26-1.36,1.26ZM16.27,10.7h-.67v1.18h.67c.4,0,.76-.09.76-.59s-.36-.59-.76-.59ZM7.67,10.76h-.62v2.48h.77c.5,0,.98-.31.98-1.18,0-.79-.28-1.3-1.14-1.3Z"/>
      </g>
    </g>
    <g>
      <path class="cls-1" d="M27,6.56h5c.98,0,1.78.13,2.39.4.61.27,1.11.65,1.5,1.15.4.5.68,1.08.86,1.74.18.66.27,1.37.27,2.11,0,1.16-.13,2.07-.4,2.71s-.63,1.18-1.1,1.61c-.47.43-.97.72-1.51.87-.74.2-1.41.3-2,.3h-5V6.56ZM30.36,9.02v5.95h.82c.7,0,1.2-.08,1.5-.23.3-.16.53-.43.7-.82.17-.39.25-1.02.25-1.89,0-1.15-.19-1.94-.56-2.37s-1-.64-1.87-.64h-.84Z"/>
      <path class="cls-1" d="M38.36,12.01c0-1.78.49-3.16,1.48-4.15.99-.99,2.37-1.48,4.14-1.48s3.21.49,4.19,1.46c.98.97,1.47,2.34,1.47,4.09,0,1.27-.21,2.32-.64,3.13-.43.81-1.05,1.45-1.86,1.9-.81.45-1.82.68-3.03.68s-2.24-.2-3.05-.59c-.8-.39-1.46-1.01-1.96-1.86-.5-.85-.75-1.91-.75-3.18ZM41.72,12.02c0,1.1.2,1.89.61,2.37.41.48.96.72,1.67.72s1.28-.24,1.68-.71c.4-.47.59-1.31.59-2.53,0-1.02-.21-1.77-.62-2.25-.41-.47-.97-.71-1.68-.71s-1.22.24-1.63.72c-.41.48-.62,1.27-.62,2.38Z"/>
      <path class="cls-1" d="M58.7,12.99l2.95.89c-.2.83-.51,1.52-.94,2.07-.43.55-.95.97-1.59,1.25-.63.28-1.43.42-2.41.42-1.18,0-2.15-.17-2.9-.52-.75-.34-1.4-.95-1.94-1.81-.54-.87-.82-1.97-.82-3.32,0-1.8.48-3.18,1.44-4.15.96-.97,2.31-1.45,4.07-1.45,1.37,0,2.45.28,3.23.83s1.37,1.41,1.75,2.55l-2.97.66c-.1-.33-.21-.57-.33-.73-.19-.26-.42-.46-.69-.59s-.58-.21-.91-.21c-.76,0-1.35.31-1.75.92-.31.45-.46,1.17-.46,2.14,0,1.21.18,2.03.55,2.48.37.45.88.67,1.54.67s1.13-.18,1.46-.54c.33-.36.57-.89.72-1.57Z"/>
      <path class="cls-1" d="M62.5,12.3h4.4v2.34h-4.4v-2.34Z"/>
      <path class="cls-1" d="M75.03,15.65h-3.82l-.53,1.8h-3.43l4.09-10.88h3.67l4.09,10.88h-3.52l-.54-1.8ZM74.33,13.29l-1.2-3.91-1.19,3.91h2.39Z"/>
      <path class="cls-1" d="M80.15,6.56h5.59c1.22,0,2.13.29,2.74.87s.91,1.4.91,2.47-.33,1.96-.99,2.58c-.66.62-1.67.93-3.03.93h-1.84v4.04h-3.38V6.56ZM83.53,11.2h.82c.65,0,1.1-.11,1.37-.34.26-.23.39-.51.39-.87s-.11-.63-.34-.87-.66-.36-1.28-.36h-.96v2.43Z"/>
      <path class="cls-1" d="M91.28,6.56h3.37v10.88h-3.37V6.56Z"/>
      <path class="cls-1" d="M96.29,12.3h4.4v2.34h-4.4v-2.34Z"/>
      <path class="cls-1" d="M102.12,6.56h5.59c1.22,0,2.13.29,2.74.87s.91,1.4.91,2.47-.33,1.96-.99,2.58c-.66.62-1.67.93-3.03.93h-1.84v4.04h-3.38V6.56ZM105.49,11.2h.82c.65,0,1.1-.11,1.37-.34.26-.23.39-.51.39-.87s-.11-.63-.34-.87-.66-.36-1.28-.36h-.96v2.43Z"/>
      <path class="cls-1" d="M113.13,6.56h3.36v3.81h3.68v-3.81h3.38v10.88h-3.38v-4.4h-3.68v4.4h-3.36V6.56Z"/>
      <path class="cls-1" d="M125.76,6.56h5.59c1.22,0,2.13.29,2.74.87s.91,1.4.91,2.47-.33,1.96-.99,2.58c-.66.62-1.67.93-3.03.93h-1.84v4.04h-3.38V6.56ZM129.14,11.2h.82c.65,0,1.1-.11,1.37-.34.26-.23.39-.51.39-.87s-.11-.63-.34-.87-.66-.36-1.28-.36h-.96v2.43Z"/>
    </g>
  </g>
</svg>